<svg id="Layer_1" data-name="Layer 1" xmlns="http://www.w3.org/2000/svg" viewBox="0 0 526.09 269.11"><defs><style>.cls-1,.cls-2{fill:#fff;}.cls-2{font-size:36px;font-family:Calibri-Bold, Calibri;font-weight:700;}.cls-3{letter-spacing:-0.01em;}.cls-4{letter-spacing:-0.01em;}.cls-5{letter-spacing:-0.04em;}.cls-6{letter-spacing:0em;}</style></defs><title>NewLogoAnother</title><path class="cls-1" d="M294.12,26.76A308.78,308.78,0,0,1,339,22.68c15.26.16,30.94,1.11,45.17,7.13C392.81,33.44,401,39.42,405,48.1c4.55,9.27,3.9,20.18,1.24,29.91-3.78,13.32-10.77,25.48-18.6,36.81-32.62-11.88-67-18.18-101.43-21.93C218,86,149.06,89.64,81.42,99.9c29.87-14.49,60.36-27.71,91.46-39.35C212.26,46,252.64,33.64,294.12,26.76Z" transform="translate(-31.39 -22.68)"/><path class="cls-1" d="M33.37,188.6C37,175.18,44.05,163,51.85,151.54c23.91,8.76,48.93,14.16,74.05,18.06,77,11.07,155.5,7.36,232.17-4.59-35.73,17.37-72.22,33.25-109.69,46.49-36,12.61-72.81,23.25-110.58,28.85-16.13,2.3-32.46,3.61-48.75,2.88-12.42-.74-25.07-2.59-36.39-8-7.52-3.6-14.31-9.3-17.93-16.93C30.24,209.08,30.79,198.27,33.37,188.6Z" transform="translate(-31.39 -22.68)"/><path class="cls-1" d="M315.34,116.34c6.24-9.8,20.81-12.15,30.38-6.06,2,1.14,1.51,3.77,1.56,5.71-.27,1.09,0,3.65-1.84,2.86-3.54-2-7.3-4.26-11.56-3.88-5.51,0-9.95,4.57-11.14,9.71-1.37,5.91-1.44,12.47,1.16,18.07,1.87,4.25,6.65,6.56,11.15,6.29,4.45.12,8.1-2.68,12-4.37.28,3.17,1.53,7.53-1.67,9.67-6.9,4.72-16.35,4.75-23.73,1.12-6-3.11-9.38-9.78-10.25-16.29C310.4,131.44,311.05,123.06,315.34,116.34Z" transform="translate(-31.39 -22.68)"/><path class="cls-1" d="M458.44,111.65a16,16,0,0,1,9.59.08c0,2.76,0,5.51,0,8.27h8.34a16.49,16.49,0,0,1,0,8c-2.79,0-5.56,0-8.34,0,0,5.37,0,10.73,0,16.1.1,1.8,0,4,1.53,5.31,2.19,1.33,4.73.19,6.93-.48.31,2.46.86,5.09-.22,7.44-3.57,2.19-8.28,2.11-12.14.72s-5.52-5.83-5.61-9.68c-.21-6.44,0-12.89-.08-19.33-1.62-.23-3.46.3-4.92-.51-1.05-2.26-.7-4.93-.13-7.28a29.2,29.2,0,0,1,5-.38C458.38,117.16,458.41,114.4,458.44,111.65Z" transform="translate(-31.39 -22.68)"/><path class="cls-1" d="M368.56,119.43c2.13-1,4.51-.13,6.69.23a30.41,30.41,0,0,1-.07,9.33c-1.95-.36-3.91-1.27-5.91-.87a12.18,12.18,0,0,0-5.73,6.25c-.35,7.29-.06,14.61-.11,21.92a15.93,15.93,0,0,1-9.73,0c0-11.82.09-23.64,0-35.45,2.63-1.36,5.68-1,8.41-.17-.06,1.67-.11,3.35-.15,5C363.77,123.29,365.59,120.52,368.56,119.43Z" transform="translate(-31.39 -22.68)"/><path class="cls-1" d="M387.19,121.19a18.93,18.93,0,0,1,19,.58c5.1,3.6,6.39,10.48,5.94,16.34a2.72,2.72,0,0,1-3,2.86c-6.92.12-13.85,0-20.78.05.45,3.46,1.12,7.69,4.83,9.13,5.61,2.2,11.62,0,17.15-1.37,0,2.26,1,5-.52,7C404.69,158,399,158.13,393.48,158c-3.37-.77-7-1.55-9.51-4.05-4.66-4.24-5.36-11-5.08-17C379.11,130.84,381.63,124.29,387.19,121.19ZM391,128c-1.81,1.84-2.07,4.56-2.62,7q7.34.09,14.68,0c-.39-2.34-.34-5-2-6.88C398.5,125.18,393.56,125.27,391,128Z" transform="translate(-31.39 -22.68)"/><path class="cls-1" d="M420,123.16c2.78-2.93,7.2-3.37,11-4.07,5.51-.4,12.39,0,15.86,5,2.61,4.53,1.73,9.94,1.88,14.92-.15,5.8.3,11.64-.2,17.42-2,1-4.42.61-6.59.53-1.61-.68-1.1-2.5-1.26-3.86-4.08,4.41-10.74,6.43-16.38,3.9-7.77-2.5-9-14.58-2.27-18.91,5.13-3.2,11.47-3.13,17.31-3.06-.07-3.06.31-7.58-3.44-8.6-5.34-1.81-10.15,1.64-14.8,3.67C419,128.71,419.34,125.27,420,123.16Zm9.34,19c-3.35,1.76-3,7.63.84,8.59,3.59,1.2,6.79-1.33,9.12-3.76,0-2-.05-4-.05-6C435.94,141.06,432.38,140.57,429.35,142.2Z" transform="translate(-31.39 -22.68)"/><path class="cls-1" d="M494.49,119.68a23.1,23.1,0,0,1,16.06,1.62c4.87,2.66,7,8.35,7.45,13.62.67,7-.68,15-6.56,19.52a21.58,21.58,0,0,1-22.7.83c-6.85-4.52-7.72-13.84-6.61-21.27C483,127.31,487.77,121.15,494.49,119.68Zm3.9,7.4a7.48,7.48,0,0,0-5.86,5.24,19.57,19.57,0,0,0,.75,14.24c2.11,3.93,7.77,4.44,11.27,2.16,3-2.22,3.71-6.2,3.75-9.7s-.28-7.09-2.56-9.77C504,127.17,501,126.66,498.39,127.08Z" transform="translate(-31.39 -22.68)"/><path class="cls-1" d="M539.57,119.42c2.13-1,4.49-.12,6.67.24a30.16,30.16,0,0,1-.06,9.34c-2.33-.42-5.08-1.89-7.22-.17-2.48,1.93-5,4.75-4.58,8.13,0,6.44,0,12.88,0,19.32a15.71,15.71,0,0,1-9.73,0c0-11.82.08-23.65,0-35.48,2.63-1.3,5.65-.93,8.39-.16-.05,1.68-.1,3.36-.14,5C534.77,123.27,536.6,120.52,539.57,119.42Z" transform="translate(-31.39 -22.68)"/><path class="cls-1" d="M100.14,108.94c1.69-1.25,3.91-.89,5.89-1,2.28.07,4.84-.3,6.76,1.26a19.46,19.46,0,0,1,3.28,4.82c5.09,9.65,10.53,19.12,15.12,29-.42-11.45-.06-22.92-.22-34.37a14.29,14.29,0,0,1,9.07,0c-.14,15.11.07,30.22-.1,45.32.07,2-2.13,3.14-3.88,3-3.21,0-7.52.72-9.4-2.64-4-6.86-7.38-14-11.14-21-2.58-5.16-5.57-10.16-7.21-15.73.19,12.85,0,25.69.13,38.54-2.86,1.29-6.07,1-9,.27,0-14.5,0-29,0-43.52A7,7,0,0,1,100.14,108.94Z" transform="translate(-31.39 -22.68)"/><path class="cls-1" d="M150.3,127.41c4.35-8.89,17-10.86,24.87-5.63,4.79,3.38,6.19,9.74,6,15.28,0,1.49-.32,3.64-2.17,3.82-7.22.32-14.46,0-21.68.14.45,3.46,1.11,7.68,4.82,9.13,5.62,2.2,11.62,0,17.16-1.37,0,2.26,1,5-.51,7C173.7,158,168,158.13,162.48,158c-5.32-.8-10.86-3.47-12.87-8.81A28.21,28.21,0,0,1,150.3,127.41ZM160,128c-1.83,1.84-2.07,4.56-2.63,7q7.33.09,14.68,0c-.38-2.36-.34-5-2.05-6.91A7,7,0,0,0,160,128Z" transform="translate(-31.39 -22.68)"/><path class="cls-1" d="M266.51,121.49a17.84,17.84,0,0,1,17.34-.58c3.08,1.62,1.66,5.67,1.54,8.44-3.68-1.76-7.71-4.56-11.95-2.95-2.79.56-3.26,4.63-.86,6,3.61,2.26,8.07,2.88,11.45,5.58,5.57,4.33,4.63,14.27-1.5,17.67-5.63,3.22-12.77,3-18.64.51-3.28-1.39-1.95-5.73-1.78-8.46,4.28,1.57,8.74,4.54,13.47,2.89,2.86-.6,4-4.95,1.34-6.55-4.09-2.65-9.51-3.19-12.78-7.09C260.45,132.41,261.43,124.63,266.51,121.49Z" transform="translate(-31.39 -22.68)"/><path class="cls-1" d="M184.56,120.79a18,18,0,0,1,10.06-.36c2.9,3.64,4.57,8.15,6.93,12.16,2.12-3.87,4-7.91,6.31-11.64,2.27-1.79,5.53-.79,8.21-.84l.89,1c-2.69,5.68-6,11.09-9,16.62,3.2,6.26,6.9,12.24,10,18.57a24.37,24.37,0,0,1-9,.66c-1.41.15-2.21-1.17-2.76-2.23-2-3.71-3.8-7.48-5.72-11.21-2.38,4.27-4.19,8.88-6.95,12.92-3,1.22-6.58.61-9.68-.1,3.1-6.2,6.78-12.1,10.08-18.19C190.92,132.3,187.47,126.69,184.56,120.79Z" transform="translate(-31.39 -22.68)"/><path class="cls-1" d="M222.56,120.79c3.05-1.29,6.48-1,9.61-.14,0,7.48-.16,15,.05,22.44,0,2.71,1.19,5.7,3.87,6.76,4.13,1,7.76-2.8,9.35-6.16.24-7.64.05-15.3.06-22.94a14.91,14.91,0,0,1,9.52-.06c0,11.88-.08,23.76,0,35.64a12,12,0,0,1-8.26,0c0-1.57.09-3.13.14-4.7-3.37,3.58-7.79,6.91-13,6.44-5.94,0-10.84-5.2-11.09-11C222.25,138.29,222.81,129.52,222.56,120.79Z" transform="translate(-31.39 -22.68)"/><text class="cls-2" transform="translate(25.9 256.55)">The Ultim<tspan class="cls-3" x="146.11" y="0">a</tspan><tspan class="cls-4" x="163.55" y="0">t</tspan><tspan x="175.59" y="0">e </tspan><tspan class="cls-5" x="201.85" y="0">W</tspan><tspan x="233.19" y="0">eb Ap</tspan><tspan class="cls-6" x="319.9" y="0">p</tspan><tspan x="339.05" y="0">s Solutions</tspan></text></svg>